<?xml version="1.0" encoding="UTF-8"?>
<svg width="102px" height="67px" viewBox="0 0 102 67" version="1.1" xmlns="http://www.w3.org/2000/svg" xmlns:xlink="http://www.w3.org/1999/xlink">

        <linearGradient x1="50%" y1="0%" x2="-204.62167%" y2="109.852636%" id="linearGradient-1">
            <stop stop-color="#3641E7" stopOpacity="0.629561844" offset="0%"></stop>
            <stop stop-color="#E8CAFF" stopOpacity="0.633085664" offset="100%"></stop>
        </linearGradient>
        <path d="M39.5970135,43.5 C37.9263663,45.2863691 36.8907588,46.2582589 35.9586229,47.93567 C33.0592143,53.1532574 40.5816006,53.2845196 43.0760418,52.8357007 C43.3196325,52.791872 43.2642305,52.342801 43.2249016,52.0934696 L41.8134728,50.7805784 C41.5282191,48.9721682 42.4190097,47.1077935 42.1527454,45.2963671 C42.0595968,44.6626667 41.230348,44.1207667 40.8093537,43.9494414 C40.5286908,43.8352246 40.1245774,43.6854108 39.5970135,43.5 Z" id="path-2"></path>
        <filter x="-188.5%" y="-94.7%" width="477.1%" height="415.8%" filterUnits="objectBoundingBox" id="filter-3">
            <feOffset dx="0" dy="6" in="SourceAlpha" result="shadowOffsetOuter1"></feOffset>
            <feGaussianBlur stdDeviation="4" in="shadowOffsetOuter1" result="shadowBlurOuter1"></feGaussianBlur>
            <feComposite in="shadowBlurOuter1" in2="SourceAlpha" operator="out" result="shadowBlurOuter1"></feComposite>
            <feColorMatrix values="0 0 0 0 0.799837676   0 0 0 0 0.602153201   0 0 0 0 1  0 0 0 0.15 0" type="matrix" in="shadowBlurOuter1"></feColorMatrix>
        </filter>
        <linearGradient x1="50%" y1="0%" x2="-56.6012121%" y2="109.852636%" id="linearGradient-4">
            <stop stop-color="#3641E7" stopOpacity="0.629561844" offset="0%"></stop>
            <stop stop-color="#E8CAFF" stopOpacity="0.633085664" offset="100%"></stop>
        </linearGradient>
        <path d="M23.0780113,33.5718077 C29.555577,32.2805404 29.6955841,41.841456 29.7004086,43.5880245 C29.7029309,44.5065902 29.3708586,45.212202 28.7041918,45.7048598 L28.7016284,45.701391 C28.4452654,45.8908398 28.1603081,46.0381571 27.8575091,46.1377841 C25.883018,46.7874315 24.5964507,46.3034231 23.9978072,44.6857588 C22.6728263,41.1053736 22.2994333,33.727013 23.0780113,33.5718077 Z" id="path-5"></path>
        <filter x="-213.5%" y="-69.4%" width="527.0%" height="331.4%" filterUnits="objectBoundingBox" id="filter-6">
            <feOffset dx="0" dy="6" in="SourceAlpha" result="shadowOffsetOuter1"></feOffset>
            <feGaussianBlur stdDeviation="4" in="shadowOffsetOuter1" result="shadowBlurOuter1"></feGaussianBlur>
            <feComposite in="shadowBlurOuter1" in2="SourceAlpha" operator="out" result="shadowBlurOuter1"></feComposite>
            <feColorMatrix values="0 0 0 0 0.799837676   0 0 0 0 0.602153201   0 0 0 0 1  0 0 0 0.15 0" type="matrix" in="shadowBlurOuter1"></feColorMatrix>
        </filter>
        <linearGradient x1="50%" y1="0%" x2="-88.8532175%" y2="109.852636%" id="linearGradient-7">
            <stop stop-color="#3641E7" stopOpacity="0.629561844" offset="0%"></stop>
            <stop stop-color="#E8CAFF" stopOpacity="0.633085664" offset="100%"></stop>
        </linearGradient>
        <path d="M29.9808469,39.9355537 C34.7042863,37.073105 35.5157453,42.5357718 35.9010161,46.4681047 C36.0207062,47.6897427 36.8336634,48.577414 36.8348139,48.9914005 C36.8379599,50.1361648 36.1236601,50.7986523 34.6919144,50.9788632 L34.6919143,50.9788627 C34.639154,50.9855035 34.5865796,50.993546 34.5342468,51.0029816 C32.1884003,51.4259363 30.8196952,51.1083688 30.4281316,50.0502793 C29.1031507,46.4698941 29.1398016,40.445235 29.9808469,39.9355537 Z" id="path-8"></path>
        <filter x="-201.3%" y="-74.7%" width="502.7%" height="349.0%" filterUnits="objectBoundingBox" id="filter-9">
            <feOffset dx="0" dy="6" in="SourceAlpha" result="shadowOffsetOuter1"></feOffset>
            <feGaussianBlur stdDeviation="4" in="shadowOffsetOuter1" result="shadowBlurOuter1"></feGaussianBlur>
            <feComposite in="shadowBlurOuter1" in2="SourceAlpha" operator="out" result="shadowBlurOuter1"></feComposite>
            <feColorMatrix values="0 0 0 0 0.799837676   0 0 0 0 0.602153201   0 0 0 0 1  0 0 0 0.15 0" type="matrix" in="shadowBlurOuter1"></feColorMatrix>
        </filter>
        <path d="M88.8213195,3.49729021 C91.6465345,5.39166818 87.0467946,10.7502108 87.3339926,16.960708 C87.5425702,21.4710806 90.804422,23.4430944 89.8128708,24.9390297 C87.8124999,27.9569528 83.5416083,28.9270162 79.8973583,29.4268357 C78.0880765,29.6749839 79.8064222,26.0726339 78.9058071,26.434965 C77.3275441,27.0699241 76.426929,30.922771 74.9396021,31.4214161 C72.4995458,32.2394758 66.5114165,26.434965 67.5029678,24.9390297 C70.4776672,20.4511549 71.6416396,18.3612643 70.9733971,17.9579983 C70.4022005,17.6132967 66.5114165,22.9444493 65.0240897,23.4430944 C62.3673399,24.3338033 62.118029,22.4998693 59.0747822,19.4539336 C58.2900633,18.6685213 55.1202224,15.8982317 51.1423723,14.4674825 C47.2066403,13.0518823 42.4623409,12.9715472 41.7226354,12.9715472 C38.6528226,12.9715472 39.7395329,8.48374126 39.7395329,8.98238636 C39.7395329,11.1034497 35.7966679,16.160355 33.2944499,17.9579983 C30.7922318,19.7556415 26.3535912,20.4512238 26.3535912,18.9552885 C26.3535912,17.4374082 27.0498908,16.4333605 27.840918,14.9661276 C28.8840174,13.0313401 30.2780048,10.5413715 32.3028986,7.48645105 C32.3028986,7.48645105 32.3028986,7.48645105 32.3028986,7.48645105 C35.3863298,2.83453456 41.300989,0.969543998 46.495084,3.01141863 C59.3493233,8.06462965 68.3350562,11.7170963 73.4522752,13.9688374 C74.7723183,14.5496989 75.1160282,14.2872371 73.9480509,12.9715472 C73.4318627,12.3900774 70.9733971,11.974257 70.9733971,10.4783217 C70.9733971,8.98238636 87.3339926,2.5 88.8213195,3.49729021 Z" id="path-10"></path>
        <filter x="-14.1%" y="-18.3%" width="128.3%" height="170.0%" filterUnits="objectBoundingBox" id="filter-11">
            <feOffset dx="0" dy="6" in="SourceAlpha" result="shadowOffsetOuter1"></feOffset>
            <feGaussianBlur stdDeviation="2" in="shadowOffsetOuter1" result="shadowBlurOuter1"></feGaussianBlur>
            <feComposite in="shadowBlurOuter1" in2="SourceAlpha" operator="out" result="shadowBlurOuter1"></feComposite>
            <feColorMatrix values="0 0 0 0 0.799837676   0 0 0 0 0.602153201   0 0 0 0 1  0 0 0 0.154556381 0" type="matrix" in="shadowBlurOuter1"></feColorMatrix>
        </filter>
        <linearGradient x1="50%" y1="0%" x2="50%" y2="129.561126%" id="linearGradient-12">
            <stop stop-color="#3641E7" offset="0%"></stop>
            <stop stop-color="#7279DE" offset="100%"></stop>
        </linearGradient>
        <path d="M1.90075659,4.55375165 C-1.32075206,5.84504823 3.20631647,13.4855732 2.89701949,18.0314097 C2.5877225,22.5772463 -1.867515,23.240368 0.904493686,26.0181701 C1.90075659,27.0165151 3.7503023,27.1539718 5.38767674,28.0148602 C7.780437,29.2729106 9.7807325,30.8967576 11.3652541,30.5107228 C12.6923284,30.1874095 10.5170879,25.3301243 11.3652541,26.0181701 C12.4254254,26.8781976 14.0314554,31.4893414 16.3465686,34.504103 C17.749411,36.3308971 19.3353573,39.4958282 21.3278831,38.4974831 C23.6523987,37.3327963 22.8123492,35.7455361 23.8185404,34.504103 C24.5674003,33.5801637 25.3253748,32.0254806 26.3091977,31.5090678 C28.0810017,30.5790403 30.6608165,31.9633384 31.7886436,33.0065854 C32.5405284,33.7020834 32.872616,35.1996009 32.7849065,37.4991381 C34.4453447,36.8335747 35.7736952,36.8335747 36.7699581,37.4991381 C37.766221,38.1647015 38.2643525,39.662219 38.2643525,41.9916908 C41.1350061,42.0251801 42.9614881,42.5243526 43.7437984,43.4892084 C44.5261087,44.4540641 44.8581963,46.617145 44.7400613,49.9784511 C46.4214727,51.9003937 47.5837794,52.8987388 48.2269815,52.9734863 C50.9706438,53.2923316 52.1284793,50.6431618 51.7139016,49.9784511 C49.2232444,45.985071 40.1100663,38.928344 40.7550097,38.4974831 C42.2494041,37.4991381 53.7064274,48.9801061 55.2008218,48.9801061 C68.17654,48.9801061 45.7518065,36.1102232 45.2381928,32.5074129 C45.0046094,30.8689118 51.4839373,36.7594931 53.7064274,38.4974831 C60.2549982,43.6184736 63.9260002,45.9737931 65.6615822,43.4892084 C68.2231958,39.8221124 48.2897384,27.298683 50.7176387,26.0181701 C53.0219871,24.8028204 67.654108,41.9916908 71.6391596,39.4958282 C76.7299932,36.3074074 69.4659198,27.6107653 50.7176387,16.0347197 C48.2320442,14.5 39.2606154,14.0380296 38.2643525,16.0347197 C37.1075335,18.353193 35.1566637,19.0598089 32.7849065,20.0280998 C30.4131493,20.9963907 25.915208,21.9307144 24.8148033,20.5272724 C23.175485,18.4365067 26.3091977,15.0363746 27.3054606,13.0396845 C28.0827177,11.4819214 19.0366651,13.0396845 15.8484372,13.0396845 C14.8521743,13.0396845 17.6211173,11.2742403 17.3428315,11.0429944 C15.2545139,9.30767452 12.208336,8.24525836 9.37272834,7.04961426 C5.91797043,5.59290324 2.76491985,4.20736393 1.90075659,4.55375165 Z" id="path-13"></path>
        <filter x="-19.8%" y="-19.6%" width="139.6%" height="159.8%" filterUnits="objectBoundingBox" id="filter-14">
            <feOffset dx="0" dy="5" in="SourceAlpha" result="shadowOffsetOuter1"></feOffset>
            <feGaussianBlur stdDeviation="4" in="shadowOffsetOuter1" result="shadowBlurOuter1"></feGaussianBlur>
            <feColorMatrix values="0 0 0 0 0.799837676   0 0 0 0 0.602153201   0 0 0 0 1  0 0 0 0.241067526 0" type="matrix" in="shadowBlurOuter1"></feColorMatrix>
        </filter>
        <linearGradient x1="50%" y1="7.5179934%" x2="-313.056936%" y2="100.853201%" id="linearGradient-15">
            <stop stop-color="#3641E7" stopOpacity="0.629561844" offset="0%"></stop>
            <stop stop-color="#E8CAFF" stopOpacity="0.633085664" offset="100%"></stop>
        </linearGradient>
        <path d="M14.3389138,36.5156759 C14.8362494,36.3628859 14.9198944,37.3600677 15.8549192,38.0681509 C16.392089,38.4749433 17.5712043,39.1649322 19.3922652,40.1381177 C18.8692991,40.9753309 18.363964,41.4928225 17.8762598,41.6905928 C16.7340731,42.153764 14.8391868,42.0492082 14.3389138,41.6905928 C13.0432754,40.7618281 13.2011076,36.8652292 14.3389138,36.5156759 Z" id="path-16"></path>
        <filter x="-251.4%" y="-163.6%" width="602.8%" height="645.5%" filterUnits="objectBoundingBox" id="filter-17">
            <feOffset dx="0" dy="6" in="SourceAlpha" result="shadowOffsetOuter1"></feOffset>
            <feGaussianBlur stdDeviation="4" in="shadowOffsetOuter1" result="shadowBlurOuter1"></feGaussianBlur>
            <feComposite in="shadowBlurOuter1" in2="SourceAlpha" operator="out" result="shadowBlurOuter1"></feComposite>
            <feColorMatrix values="0 0 0 0 0.799837676   0 0 0 0 0.602153201   0 0 0 0 1  0 0 0 0.15 0" type="matrix" in="shadowBlurOuter1"></feColorMatrix>
        </filter>
    </defs>
    <g id="Page-1" stroke="none" strokeWidth="1" fill="none" fillRule="evenodd">
        <g id="Desktop-HD-Copy" transform="translate(-38.000000, -53.000000)">
            <g id="blue-logo" transform="translate(46.000000, 53.000000)">
                <g id="Path-5">
                    <use fill="black" fill-opacity="1" filter="url(#filter-3)" xlink:href="#path-2"></use>
                    <use fill="url(#linearGradient-1)" fillRule="evenodd" xlink:href="#path-2"></use>
                </g>
                <g id="Rectangle" transform="translate(26.187832, 39.934652) rotate(42.000000) translate(-26.187832, -39.934652) ">
                    <use fill="black" fill-opacity="1" filter="url(#filter-6)" xlink:href="#path-5"></use>
                    <use fill="url(#linearGradient-4)" fillRule="evenodd" xlink:href="#path-5"></use>
                </g>
                <g id="Rectangle-Copy" transform="translate(33.109842, 45.160891) rotate(42.000000) translate(-33.109842, -45.160891) ">
                    <use fill="black" fill-opacity="1" filter="url(#filter-9)" xlink:href="#path-8"></use>
                    <use fill="url(#linearGradient-7)" fillRule="evenodd" xlink:href="#path-8"></use>
                </g>
                <g id="Path-2">
                    <use fill="black" fill-opacity="1" filter="url(#filter-11)" xlink:href="#path-10"></use>
                    <use fill-opacity="0.629561844" fill="#3641E7" fillRule="evenodd" xlink:href="#path-10"></use>
                </g>
                <g id="Path-3">
                    <use fill="black" fill-opacity="1" filter="url(#filter-14)" xlink:href="#path-13"></use>
                    <use fill="url(#linearGradient-12)" fillRule="evenodd" xlink:href="#path-13"></use>
                </g>
                <g id="Path-4">
                    <use fill="black" fill-opacity="1" filter="url(#filter-17)" xlink:href="#path-16"></use>
                    <use fill="url(#linearGradient-15)" fillRule="evenodd" xlink:href="#path-16"></use>
                </g>
                <polygon id="Star" fill="#6236FF" points="79.8066298 40.25 78.1991508 41.0225425 78.506152 39.3862712 77.2056742 38.2274575 79.0028903 37.9887288 79.8066298 36.5 80.6103693 37.9887288 82.4075855 38.2274575 81.1071077 39.3862712 81.4141088 41.0225425"></polygon>
                <polygon id="Star-Copy" fill="#6236FF" points="21.1325967 3.75 19.5251177 4.52254249 19.8321189 2.88627124 18.531641 1.72745751 20.3288572 1.48872876 21.1325967 0 21.9363362 1.48872876 23.7335524 1.72745751 22.4330745 2.88627124 22.7400757 4.52254249"></polygon>
            </g>
        </g>
    </g>
</svg>